HIERARCHY
ROOT Hips
{
	OFFSET 0.000000 0.000000 0.000000
	CHANNELS 6 Xposition Yposition Zposition Zrotation Yrotation Xrotation 
	JOINT LHipJoint
	{
		OFFSET 0.000000 0.000000 0.000000
		CHANNELS 3 Zrotation Yrotation Xrotation
		JOINT LeftUpLeg
		{
			OFFSET 1.363060 -1.794630 0.839290
			CHANNELS 3 Zrotation Yrotation Xrotation
			JOINT LeftLeg
			{
				OFFSET 2.448110 -6.726130 0.000000
				CHANNELS 3 Zrotation Yrotation Xrotation
				JOINT LeftFoot
				{
					OFFSET 2.562200 -7.039590 0.000000
					CHANNELS 3 Zrotation Yrotation Xrotation
					JOINT LeftToeBase
					{
						OFFSET 0.157640 -0.433110 2.322550
						CHANNELS 3 Zrotation Yrotation Xrotation
						End Site
						{
							OFFSET 0.000000 0.000000 0.000000
						}
					}
				}
			}
		}
	}
	JOINT RHipJoint
	{
		OFFSET 0.000000 0.000000 0.000000
		CHANNELS 3 Zrotation Yrotation Xrotation
		JOINT RightUpLeg
		{
			OFFSET -1.305520 -1.794630 0.839290
			CHANNELS 3 Zrotation Yrotation Xrotation
			JOINT RightLeg
			{
				OFFSET -2.542530 -6.985550 0.000000
				CHANNELS 3 Zrotation Yrotation Xrotation
				JOINT RightFoot
				{
					OFFSET -2.568260 -7.056230 0.000000
					CHANNELS 3 Zrotation Yrotation Xrotation
					JOINT RightToeBase
					{
						OFFSET -0.164730 -0.452590 2.363150
						CHANNELS 3 Zrotation Yrotation Xrotation
						End Site
						{
							OFFSET 0.000000 0.000000 0.000000
						}
					}
				}
			}
		}
	}
}
MOTION
Frames: 16
Frame Time: 0.008333
-10.744888 17.210052 -0.730139 -168.452730 87.186288 -147.555479 -11.670616 5.649546 4.263551 -5.836718 0.790929 2.242335 -1.124049 0.134167 3.952867 0.328089 1.486549 15.536237 0.601000 0.000000 -63.617500 8.268733 -1.049453 5.184901 9.290327 7.677999 -45.454658 1.587404 -2.151102 41.921815 -1.860839 -3.733208 -17.417316 0.741200 -0.000000 -22.002700
-10.476508 17.276146 -0.715477 -161.590445 87.041556 -140.967985 -11.942775 5.746648 3.865619 -4.920476 2.570186 2.863103 -0.976366 0.259968 4.033825 0.436471 1.769565 17.675267 0.689900 -0.000000 -61.274000 7.862636 -1.269883 5.427749 10.160570 8.619618 -44.285936 1.948541 -1.796065 37.609425 -1.735846 -3.238360 -16.309555 0.567000 -0.000000 -25.305600
-10.210654 17.332178 -0.699413 -155.981041 86.880786 -135.644378 -12.162548 5.798986 3.453777 -4.068334 4.236537 3.402286 -0.825561 0.367400 4.526248 0.571781 2.473737 19.134073 0.954600 0.000000 -58.115499 7.506239 -1.470471 5.659141 10.951117 9.471443 -43.063055 2.293013 -1.428904 33.331248 -1.583175 -2.809685 -14.889578 0.374100 -0.000000 -29.636500
-9.947353 17.377431 -0.681664 -151.491629 86.739708 -131.455237 -12.332697 5.813676 3.040878 -3.300942 5.738973 3.888825 -0.672743 0.459536 5.392830 0.727543 3.593865 19.940776 1.407700 -0.000000 -54.365100 7.206531 -1.637922 5.864085 11.654330 10.207641 -41.826990 2.607596 -1.062269 29.228218 -1.407826 -2.449566 -13.212902 0.171800 -0.000001 -34.432699
-9.686525 17.411376 -0.662067 -147.924913 86.641888 -128.209460 -12.458628 5.797121 2.638156 -2.629882 7.050646 4.337113 -0.520293 0.540426 6.608039 0.899192 5.055385 20.156036 2.009900 -0.000000 -50.292800 6.966526 -1.767056 6.026075 12.276707 10.798620 -40.624198 2.883105 -0.717570 25.468762 -1.217484 -2.138673 -11.389950 -0.026600 0.000000 -38.887499
-9.428064 17.433690 -0.640650 -145.090677 86.606823 -125.724177 -12.543285 5.756238 2.259826 -2.076865 8.124384 4.775404 -0.369431 0.614528 8.119360 1.086920 6.784344 19.886017 2.709500 -0.000000 -46.220100 6.788331 -1.860476 6.126676 12.834456 11.208349 -39.496382 3.111880 -0.421300 22.207443 -1.016657 -1.849461 -9.485681 -0.211900 -0.000000 -42.947200
-9.171702 17.444161 -0.617439 -142.734772 86.634749 -123.748788 -12.595531 5.697034 1.908441 -1.625177 9.004230 5.169497 -0.226033 0.687349 9.947423 1.283752 8.604802 19.220898 3.404300 0.000000 -42.402000 6.667411 -1.928079 6.160232 13.357558 11.424747 -38.482528 3.293817 -0.195675 19.575778 -0.814460 -1.551829 -7.620578 -0.368700 0.000000 -46.198501
-8.917174 17.442882 -0.592614 -140.647610 86.730567 -122.078756 -12.615287 5.626207 1.592794 -1.291542 9.661074 5.542334 -0.090485 0.763916 12.033615 1.489906 10.449855 18.303510 4.053100 0.000000 -39.132600 6.600447 -1.978858 6.118907 13.866764 11.436246 -37.597641 3.429807 -0.056342 17.656243 -0.616683 -1.215503 -5.883784 -0.484500 0.000001 -48.708100
-8.664243 17.429726 -0.566340 -138.512668 86.874450 -120.394882 -12.611031 5.547317 1.303765 -1.029553 10.192928 5.829774 0.030436 0.849669 14.425824 1.691230 12.142535 17.205970 4.569600 -0.000001 -36.461999 6.578652 -2.025308 6.016818 14.383283 11.278788 -36.850089 3.522491 -0.006672 16.469749 -0.435548 -0.849295 -4.368413 -0.552599 -0.000000 -50.441700
-8.412662 17.404641 -0.538690 -136.015610 87.047519 -118.378822 -12.583771 5.463415 1.035440 -0.810505 10.652536 6.004292 0.134721 0.948692 17.121180 1.877542 13.597811 16.009188 4.922900 -0.000000 -34.392000 6.596747 -2.074473 5.868231 14.912338 10.995173 -36.232453 3.573509 -0.042366 15.999739 -0.281569 -0.470015 -3.162013 -0.573400 0.000000 -51.385499
-8.162221 17.367629 -0.509781 -132.822769 87.231405 -115.693957 -12.528650 5.377219 0.783562 -0.618701 11.068977 6.059793 0.224326 1.063540 20.087388 2.043297 14.796174 14.795578 5.123400 -0.000001 -32.951500 6.654971 -2.127732 5.685164 15.448682 10.623085 -35.727859 3.584672 -0.154379 16.207954 -0.161698 -0.090963 -2.349111 -0.551500 -0.000000 -51.488800
-7.912708 17.318562 -0.479690 -128.448545 87.391193 -111.844454 -12.440207 5.289829 0.539974 -0.411670 11.504192 5.961161 0.300564 1.195494 23.323087 2.180910 15.707496 13.597661 5.175300 0.000000 -32.041300 6.756697 -2.184297 5.487086 15.991229 10.215217 -35.323437 3.559923 -0.329680 17.033080 -0.082604 0.260081 -1.999377 -0.498200 0.000000 -50.673800
-7.663993 17.257566 -0.448627 -122.282186 87.489277 -106.209539 -12.305281 5.205512 0.300945 -0.164608 11.985869 5.697139 0.365864 1.345561 26.794338 2.290570 16.364127 12.443294 5.110100 -0.000000 -31.535700 6.914265 -2.235711 5.287745 16.540014 9.810688 -35.002831 3.505662 -0.554233 18.408007 -0.045803 0.570492 -2.167385 -0.424500 0.000000 -48.853700
-7.415865 17.185004 -0.416800 -113.546752 87.478863 -97.997436 -12.108231 5.137723 0.064303 0.142889 12.539822 5.255405 0.417421 1.518039 30.460226 2.376641 16.821598 11.339604 4.962600 0.000000 -31.285800 7.146402 -2.263491 5.099636 17.099680 9.450980 -34.750962 3.429490 -0.811692 20.260045 -0.049957 0.832587 -2.884015 -0.340301 0.000000 -45.951900
-7.168185 17.101714 -0.384527 -101.580233 87.309602 -86.532252 -11.845364 5.118748 -0.167999 0.507155 13.182176 4.636281 0.444369 1.725474 34.254236 2.449151 17.170426 10.298756 4.776200 -0.000000 -31.211200 7.465830 -2.235250 4.925964 17.673935 9.166340 -34.540428 3.337394 -1.080249 22.511555 -0.088697 1.056494 -4.146254 -0.251600 -0.000000 -41.960500
-6.920856 17.009027 -0.352192 -86.651760 86.935093 -72.069820 -11.560288 5.194449 -0.390488 0.903106 13.938126 3.838436 0.432093 1.987238 38.101965 2.517879 17.499613 9.321198 4.585100 -0.000000 -31.217400 7.841750 -2.117320 4.762637 18.252104 8.980962 -34.334278 3.230233 -1.329974 25.080936 -0.153617 1.263163 -5.917615 -0.161800 0.000000 -36.918300
